<svg width="128" height="128" viewBox="0 0 128 128" fill="none" xmlns="http://www.w3.org/2000/svg">
  <rect width="128" height="128" rx="28" fill="#F0DFC1"/>
  <rect x="26" y="18" width="76" height="92" rx="12" fill="#FFF9F0"/>
  <rect x="26" y="18" width="76" height="92" rx="12" stroke="#D4B98F" stroke-width="4"/>
  <path d="M40 14C40 11.7909 41.7909 10 44 10H50C52.2091 10 54 11.7909 54 14V30H40V14Z" fill="#C97A3D"/>
  <path d="M74 14C74 11.7909 75.7909 10 78 10H84C86.2091 10 88 11.7909 88 14V30H74V14Z" fill="#C97A3D"/>
  <rect x="40" y="42" width="48" height="6" rx="3" fill="#DFC6A1"/>
  <rect x="40" y="57" width="48" height="6" rx="3" fill="#DFC6A1"/>
  <rect x="40" y="72" width="30" height="6" rx="3" fill="#DFC6A1"/>
  <path d="M41 87.5L49 95.5L63 81.5" stroke="#8B5C2A" stroke-width="6" stroke-linecap="round" stroke-linejoin="round"/>
  <circle cx="92" cy="91" r="12" fill="#8B5C2A"/>
  <path d="M91.5 85V97" stroke="#FFF9F0" stroke-width="4.5" stroke-linecap="round"/>
  <path d="M86 91.5H97" stroke="#FFF9F0" stroke-width="4.5" stroke-linecap="round"/>
</svg>
